<?xml version="1.0" encoding="UTF-8"?>
<!DOCTYPE svg PUBLIC "-//W3C//DTD SVG 1.1//EN" "http://www.w3.org/Graphics/SVG/1.1/DTD/svg11.dtd">
<svg xmlns="http://www.w3.org/2000/svg" version="1.1" width="27px" height="27px" style="shape-rendering:geometricPrecision; text-rendering:geometricPrecision; image-rendering:optimizeQuality; fill-rule:evenodd; clip-rule:evenodd" xmlns:xlink="http://www.w3.org/1999/xlink">
<g><path style="opacity:0.591" fill="#fefffe" d="M 2.5,-0.5 C 4.16667,-0.5 5.83333,-0.5 7.5,-0.5C 7.5,0.833333 7.5,2.16667 7.5,3.5C 11.8461,3.33432 16.1794,3.50098 20.5,4C 21.5742,4.73869 22.2409,5.73869 22.5,7C 21.3726,8.05674 20.8726,9.22341 21,10.5C 22.7804,11.6394 24.6137,12.6394 26.5,13.5C 26.5,14.1667 26.5,14.8333 26.5,15.5C 24.5,15.1667 22.5,14.8333 20.5,14.5C 19.1667,13.1667 17.8333,13.1667 16.5,14.5C 15.5084,14.3284 14.8417,14.6618 14.5,15.5C 13.0222,15.762 11.6888,15.4287 10.5,14.5C 12.6195,12.6002 14.9528,10.9336 17.5,9.5C 14.2317,8.51298 10.8984,8.17964 7.5,8.5C 7.41262,13.5365 7.74595,18.5365 8.5,23.5C 6.16667,23.5 3.83333,23.5 1.5,23.5C 2.25405,18.5365 2.58738,13.5365 2.5,8.5C 1.5,8.5 0.5,8.5 -0.5,8.5C -0.5,6.83333 -0.5,5.16667 -0.5,3.5C 0.5,3.5 1.5,3.5 2.5,3.5C 2.5,2.16667 2.5,0.833333 2.5,-0.5 Z"/></g>
<g><path style="opacity:0.779" fill="#fefffe" d="M 16.5,14.5 C 17.8333,14.5 19.1667,14.5 20.5,14.5C 21.172,15.2674 22.0053,15.9341 23,16.5C 23.4966,18.8098 23.6633,21.1432 23.5,23.5C 21.396,23.7989 19.396,23.4656 17.5,22.5C 21.374,20.9975 21.0407,20.3309 16.5,20.5C 16.5,21.5 16.5,22.5 16.5,23.5C 15.5,23.5 14.5,23.5 13.5,23.5C 13.2786,20.7212 13.612,18.0545 14.5,15.5C 15.4916,15.6716 16.1583,15.3382 16.5,14.5 Z"/></g>
<g><path style="opacity:0.794" fill="#fefffe" d="M -0.5,24.5 C 8.5,24.5 17.5,24.5 26.5,24.5C 26.5,25.1667 26.5,25.8333 26.5,26.5C 17.5,26.5 8.5,26.5 -0.5,26.5C -0.5,25.8333 -0.5,25.1667 -0.5,24.5 Z"/></g>
</svg>
