<?xml version="1.0" encoding="UTF-8"?>
<!DOCTYPE svg PUBLIC "-//W3C//DTD SVG 1.1//EN" "http://www.w3.org/Graphics/SVG/1.1/DTD/svg11.dtd">
<svg xmlns="http://www.w3.org/2000/svg" version="1.1" width="22px" height="22px" style="shape-rendering:geometricPrecision; text-rendering:geometricPrecision; image-rendering:optimizeQuality; fill-rule:evenodd; clip-rule:evenodd" xmlns:xlink="http://www.w3.org/1999/xlink">
<g><path style="opacity:0.665" fill="#fefffe" d="M -0.5,-0.5 C 4.83333,-0.5 10.1667,-0.5 15.5,-0.5C 15.5,0.833333 15.5,2.16667 15.5,3.5C 16.5,3.5 17.5,3.5 18.5,3.5C 18.5,4.83333 18.5,6.16667 18.5,7.5C 19.5,7.5 20.5,7.5 21.5,7.5C 21.5,9.5 21.5,11.5 21.5,13.5C 17.5,14.1667 17.5,14.8333 21.5,15.5C 21.5,17.5 21.5,19.5 21.5,21.5C 16.1667,21.5 10.8333,21.5 5.5,21.5C 5.5,20.1667 5.5,18.8333 5.5,17.5C 4.5,17.5 3.5,17.5 2.5,17.5C 2.5,16.1667 2.5,14.8333 2.5,13.5C 1.5,13.5 0.5,13.5 -0.5,13.5C -0.5,11.5 -0.5,9.5 -0.5,7.5C 3.5,6.83333 3.5,6.16667 -0.5,5.5C -0.5,3.5 -0.5,1.5 -0.5,-0.5 Z M 1.5,1.5 C 2.97782,1.23798 4.31116,1.57131 5.5,2.5C 4.83333,2.83333 4.16667,3.16667 3.5,3.5C 2.28665,3.25284 1.61998,2.58617 1.5,1.5 Z M 8.5,1.5 C 9.97782,1.23798 11.3112,1.57131 12.5,2.5C 11.8333,2.83333 11.1667,3.16667 10.5,3.5C 9.28665,3.25284 8.61998,2.58617 8.5,1.5 Z M 4.5,5.5 C 6.28801,5.21478 7.95467,5.54811 9.5,6.5C 8.66667,6.83333 7.83333,7.16667 7,7.5C 5.62439,7.31577 4.79106,6.64911 4.5,5.5 Z M 11.5,5.5 C 13.288,5.21478 14.9547,5.54811 16.5,6.5C 15.6667,6.83333 14.8333,7.16667 14,7.5C 12.6244,7.31577 11.7911,6.64911 11.5,5.5 Z M 1.5,9.5 C 2.97782,9.23798 4.31116,9.57131 5.5,10.5C 4.83333,10.8333 4.16667,11.1667 3.5,11.5C 2.28665,11.2528 1.61998,10.5862 1.5,9.5 Z M 8.5,9.5 C 9.97782,9.23798 11.3112,9.57131 12.5,10.5C 11.8333,10.8333 11.1667,11.1667 10.5,11.5C 9.28665,11.2528 8.61998,10.5862 8.5,9.5 Z M 15.5,9.5 C 16.9778,9.23798 18.3112,9.57131 19.5,10.5C 18.8333,10.8333 18.1667,11.1667 17.5,11.5C 16.2867,11.2528 15.62,10.5862 15.5,9.5 Z M 4.5,13.5 C 6.28801,13.2148 7.95467,13.5481 9.5,14.5C 8.66667,14.8333 7.83333,15.1667 7,15.5C 5.62439,15.3158 4.79106,14.6491 4.5,13.5 Z M 11.5,13.5 C 13.288,13.2148 14.9547,13.5481 16.5,14.5C 15.6667,14.8333 14.8333,15.1667 14,15.5C 12.6244,15.3158 11.7911,14.6491 11.5,13.5 Z M 8.5,17.5 C 9.97782,17.238 11.3112,17.5713 12.5,18.5C 11.8333,18.8333 11.1667,19.1667 10.5,19.5C 9.28665,19.2528 8.61998,18.5862 8.5,17.5 Z M 15.5,17.5 C 16.9778,17.238 18.3112,17.5713 19.5,18.5C 18.8333,18.8333 18.1667,19.1667 17.5,19.5C 16.2867,19.2528 15.62,18.5862 15.5,17.5 Z"/></g>
</svg>
