<svg width="20" height="18" viewBox="0 0 20 18" fill="none" xmlns="http://www.w3.org/2000/svg">
<path fill-rule="evenodd" clip-rule="evenodd" d="M20 7.97204C20 13.4528 15.5228 15.9441 10 15.9441C8.96218 15.9441 7.96129 15.8561 7.0201 15.6769C6.56033 15.5893 6.33044 15.5455 6.14158 15.582C5.95272 15.6184 5.77627 15.7314 5.42337 15.9575L4.47819 16.563C2.77008 17.6573 1.91603 18.2044 1.39852 17.9299C1.29565 17.8753 1.20314 17.8032 1.12518 17.7169C0.732948 17.2827 1.05965 16.3248 1.71307 14.4089C1.87103 13.9457 1.95001 13.7141 1.93336 13.5086C1.92911 13.4561 1.9249 13.4278 1.91364 13.3764C1.86955 13.1749 1.68944 12.925 1.32921 12.4252C0.483685 11.252 0 9.77349 0 7.97204C0 2.49126 4.47715 0 10 0C15.5228 0 20 2.49126 20 7.97204ZM10 14.9476C14.9706 14.9476 19 12.4563 19 7.97204C19 3.48777 14.9706 0.996505 10 0.996505C5.02944 0.996505 1 3.48777 1 7.97204C1 9.29103 1.34862 10.4376 1.96726 11.3991C2.68626 12.5165 3.04575 13.0752 3.08573 13.4187C3.1257 13.7623 2.98169 14.1689 2.69366 14.9821L2.18902 16.4069C2.1103 16.6292 2.07094 16.7403 2.12609 16.7845C2.18124 16.8288 2.28179 16.7667 2.48289 16.6427L5.20492 14.9635C5.64633 14.6912 5.86704 14.5551 6.09591 14.5155C6.32479 14.4759 6.62171 14.5391 7.21556 14.6656C8.09234 14.8523 9.02818 14.9476 10 14.9476Z" fill="#fff"/>
<path d="M6.875 9C6.52982 9 6.25 8.72018 6.25 8.375C6.25 8.02982 6.52982 7.75 6.875 7.75C7.22018 7.75 7.5 8.02982 7.5 8.375C7.5 8.72018 7.22018 9 6.875 9Z" fill="#fff"/>
<path d="M10.125 9C9.77982 9 9.5 8.72018 9.5 8.375C9.5 8.02982 9.77982 7.75 10.125 7.75C10.4702 7.75 10.75 8.02982 10.75 8.375C10.75 8.72018 10.4702 9 10.125 9Z" fill="#fff"/>
<path d="M13.375 9C13.0298 9 12.75 8.72018 12.75 8.375C12.75 8.02982 13.0298 7.75 13.375 7.75C13.7202 7.75 14 8.02982 14 8.375C14 8.72018 13.7202 9 13.375 9Z" fill="#fff"/>
</svg>
