<?xml version="1.0" encoding="UTF-8"?>
<!DOCTYPE svg PUBLIC "-//W3C//DTD SVG 1.1//EN" "http://www.w3.org/Graphics/SVG/1.1/DTD/svg11.dtd">
<svg xmlns="http://www.w3.org/2000/svg" version="1.1" width="24px" height="24px" style="shape-rendering:geometricPrecision; text-rendering:geometricPrecision; image-rendering:optimizeQuality; fill-rule:evenodd; clip-rule:evenodd" xmlns:xlink="http://www.w3.org/1999/xlink">
<g><path style="opacity:0.476" fill="#fefffe" d="M 10.5,-0.5 C 11.1667,-0.5 11.8333,-0.5 12.5,-0.5C 17.2287,3.11871 18.5621,7.78538 16.5,13.5C 18.3904,13.2965 19.8904,13.9632 21,15.5C 21.5662,17.7226 22.3995,19.7226 23.5,21.5C 23.5,21.8333 23.5,22.1667 23.5,22.5C 22.8333,22.5 22.5,22.8333 22.5,23.5C 15.1667,23.5 7.83333,23.5 0.5,23.5C 0.5,22.8333 0.166667,22.5 -0.5,22.5C -0.5,22.1667 -0.5,21.8333 -0.5,21.5C 0.600473,19.7226 1.43381,17.7226 2,15.5C 3.10963,13.9632 4.60963,13.2965 6.5,13.5C 6.52801,11.4176 5.86135,9.5843 4.5,8C 5.77382,4.58662 7.77382,1.75328 10.5,-0.5 Z M 8.5,4.5 C 10.6626,5.36232 12.6626,5.69566 14.5,5.5C 13.5,5.83333 12.5,6.16667 11.5,6.5C 9.97041,6.36015 8.97041,5.69348 8.5,4.5 Z M 8.5,11.5 C 10.2884,10.3775 12.2884,10.2109 14.5,11C 12.6627,14.1019 10.6627,14.2686 8.5,11.5 Z M 3.5,17.5 C 4.7759,18.3864 4.7759,19.3864 3.5,20.5C 2.91297,19.7666 2.91297,18.7666 3.5,17.5 Z M 18.5,17.5 C 19.2674,18.172 19.9341,19.0053 20.5,20C 18.9387,20.1881 18.272,19.3547 18.5,17.5 Z"/></g>
</svg>
