<svg width="1013" height="302" viewBox="0 0 1013 302" fill="none" xmlns="http://www.w3.org/2000/svg">
<path d="M181.497 74.7301C181.858 80.2837 179.328 85.4671 174.991 88.4291C170.654 91.7612 165.232 93.6125 159.449 93.6125C158.726 93.6125 158.003 93.6125 157.281 93.2422C156.196 92.872 155.112 92.5017 154.028 92.1315C152.943 91.7612 151.859 91.391 151.136 90.6505C150.413 90.2803 150.052 89.5398 150.052 88.7993C150.052 86.9481 151.136 85.4671 152.582 85.0969C154.389 83.9862 156.196 83.2457 158.365 82.5052C160.172 81.7647 162.341 81.0242 164.148 80.2837C165.955 79.5433 166.678 78.4325 166.678 76.9516C166.678 74.3599 164.871 72.1384 161.256 70.2872C156.919 68.0657 152.582 66.5848 147.883 65.8443C142.462 64.7336 137.04 63.6228 131.257 63.2526C125.474 62.5121 120.775 62.5121 116.799 62.5121C112.823 62.5121 108.125 62.8824 101.619 63.2526C95.1129 63.6228 88.607 64.7336 81.3782 65.8443C74.1494 66.955 66.9206 68.436 59.3304 70.6574C52.463 72.5087 45.5956 74.7301 39.0897 77.692C33.6681 79.9135 28.608 83.2457 23.9092 87.3183C20.2948 90.2803 18.1262 94.7232 17.4033 99.5363C17.0419 102.128 18.8491 104.72 22.4635 107.311C27.1622 110.273 31.8609 112.865 36.9211 114.716C42.7041 117.308 49.5715 119.529 57.1617 121.751C64.752 123.972 72.3422 126.194 79.9324 128.415C87.5227 130.637 94.7515 132.488 101.619 134.709C108.486 136.931 114.269 138.782 118.606 140.633C122.944 142.484 127.642 144.706 132.703 147.668C137.401 150.26 142.1 153.592 146.437 156.924C150.775 160.256 154.389 164.329 157.281 168.772C160.172 172.844 161.618 178.028 161.618 183.211C161.618 187.654 160.534 192.097 158.003 195.799C155.473 199.502 152.22 202.464 148.245 204.315C143.907 206.536 139.209 208.388 134.51 209.128C129.088 210.239 124.028 210.609 118.606 210.609C106.679 210.609 94.7515 209.498 83.1854 206.907C71.6193 204.685 60.4147 200.983 49.21 196.54C44.8728 194.689 40.8969 192.837 36.5596 190.616C32.2224 188.394 28.2465 185.433 24.6321 182.1C21.0177 179.138 18.1262 175.806 15.2347 171.734C12.7046 168.031 11.6203 163.588 11.6203 159.145C11.6203 156.554 11.9817 154.332 13.066 152.111C14.1504 149.889 15.5961 147.668 17.4033 145.817C19.572 143.965 21.7406 142.484 24.2707 141.374C27.1622 140.263 30.4152 139.522 33.6681 139.522C34.7524 139.522 35.4753 139.522 36.5596 139.893C37.644 139.893 38.7283 140.263 39.4512 140.633C40.174 141.003 40.5355 141.744 40.5355 142.114C40.5355 142.855 39.8126 143.595 38.3668 144.336C35.8368 145.817 33.6681 147.298 31.4995 148.408C29.6923 149.519 27.8851 150.26 26.0779 151.74C24.6321 152.481 23.5478 153.962 22.8249 155.073C22.102 156.183 21.7406 157.664 21.7406 159.145C21.7406 161.737 22.4635 163.958 23.9092 165.81C25.355 168.031 27.1622 169.882 29.3308 171.734C31.4995 173.585 33.6681 175.066 35.8368 176.547C37.644 177.657 39.4512 178.768 41.6198 179.879C52.8244 185.803 64.752 190.246 77.0409 193.208C89.3299 196.17 102.342 197.651 114.992 197.651C117.161 197.651 120.414 197.651 124.028 197.28C127.642 197.28 131.618 196.54 135.233 195.799C138.486 195.059 141.739 193.578 144.63 191.727C147.16 189.875 148.606 186.913 148.606 183.581C148.606 178.398 146.076 173.955 142.1 170.993C137.401 166.92 131.98 163.218 126.197 160.626C119.691 157.294 112.823 154.702 105.956 152.481C98.7273 150.26 92.5828 148.038 87.1612 146.557C71.2579 141.744 57.8846 137.671 46.68 134.339C37.2825 131.377 28.2465 128.045 19.572 123.602C13.7889 121.01 8.72877 117.308 4.39149 112.865C1.13853 109.163 -0.307224 104.349 0.054216 99.5363C0.415656 92.5017 2.94573 85.8374 7.28301 80.2837C11.9817 74.3599 17.4033 69.5467 23.9092 65.8443C31.138 61.7716 38.7283 58.0692 46.68 55.8478C55.3545 52.1453 63.6676 49.9239 71.9807 48.4429C79.9324 46.9619 87.8841 45.8512 95.8358 45.1107C103.426 44.3702 109.932 44 115.354 44C118.245 44 121.498 44 125.835 44.3702C130.534 44.7405 135.233 45.1107 139.57 46.2215C144.63 46.9619 149.329 48.4429 154.389 49.5536C159.088 51.0346 163.425 52.8858 167.762 55.1073C171.377 57.3287 174.63 59.9204 177.521 63.6228C180.413 66.5848 181.858 70.6574 181.497 74.7301Z" fill="white"/>
<path d="M367.277 150.26C366.554 149.519 365.831 148.779 364.747 148.408C363.663 148.038 362.578 148.408 361.494 148.779C360.41 149.519 359.325 150.63 359.325 152.111C358.964 154.702 358.241 157.294 357.157 159.516C356.072 162.848 354.988 166.18 353.542 169.142C352.458 172.104 351.012 174.696 349.567 177.657C348.121 179.879 347.398 181.36 346.314 181.36C345.229 181.36 344.145 179.879 343.784 177.287C343.422 173.955 343.061 170.623 343.422 167.291C343.422 163.218 343.784 159.516 344.506 155.073C344.868 151 345.591 147.668 346.314 144.706C346.675 142.855 346.314 141.003 345.229 139.522C344.145 138.042 342.699 136.931 341.253 136.19C339.446 135.45 337.639 135.08 335.832 135.45C334.025 135.45 332.579 136.561 331.133 137.671C330.049 135.82 328.603 133.969 327.157 132.118C325.712 130.637 323.543 129.526 321.736 129.156V129.526C316.676 128.415 311.615 129.156 307.278 132.118C303.302 135.08 300.049 139.152 297.881 143.965C296.796 146.557 295.712 149.519 294.989 152.111C294.628 153.221 294.266 154.702 294.266 155.813C293.905 156.924 293.543 158.405 293.182 159.516C292.098 162.848 291.013 166.18 289.929 169.142C288.845 172.104 287.76 175.066 286.315 177.657C284.869 179.879 284.507 181.36 283.062 181.36C281.616 181.36 280.893 179.879 280.532 177.287C280.17 173.955 280.17 170.623 280.17 167.291C280.17 163.218 280.532 159.516 281.254 155.073C281.977 151 282.339 147.668 283.062 144.706C283.423 143.225 283.062 141.744 282.7 140.633C281.977 139.522 281.254 138.412 280.17 137.301C279.086 136.561 278.001 135.82 276.556 135.45C275.11 135.08 273.664 135.08 272.58 135.08H263.905C260.291 135.08 256.677 135.45 253.424 135.82C253.424 128.045 253.785 121.381 254.146 116.197C254.508 111.014 254.869 106.571 255.231 103.239C255.592 100.647 255.954 98.4256 257.038 96.2042C257.761 94.7232 258.484 93.9827 259.568 93.9827C260.291 93.9827 261.014 94.7232 261.737 95.8339C262.098 97.3149 262.46 99.1661 262.46 100.647C262.821 102.869 262.821 105.09 262.46 107.311C262.46 109.163 262.098 110.644 261.737 112.495C261.375 113.235 261.014 114.346 261.014 115.457V116.197C261.014 116.567 261.014 117.308 261.375 117.678C262.098 121.01 264.267 123.602 267.52 124.343C271.134 125.453 275.11 125.824 278.724 125.453C280.893 125.083 282.7 124.713 284.507 123.972C286.315 123.232 287.76 122.121 289.206 121.01C290.652 119.9 291.375 118.419 292.098 116.938C292.82 115.457 292.82 113.606 292.82 112.125V112.495C292.459 109.163 290.29 106.201 287.399 105.09C283.784 103.609 279.809 103.239 275.833 103.979C275.833 101.758 275.471 99.9066 274.749 98.0554C274.026 95.8339 272.941 93.9827 271.496 92.1315C268.604 90.6505 267.158 89.1696 264.99 88.0588C263.182 86.9481 261.014 86.5779 258.484 86.5779C255.231 86.5779 251.978 87.6886 249.086 89.5398C246.195 91.7613 244.026 94.3529 242.942 97.6851C241.135 102.498 240.05 107.682 239.327 112.865C238.605 119.159 237.882 126.934 237.52 136.19C235.713 136.19 233.906 136.561 232.099 137.671C231.014 138.412 230.653 139.522 230.653 140.633C230.653 141.744 231.376 142.855 232.46 143.595C233.906 144.706 235.713 145.076 237.52 145.076L237.159 151.74V152.111C236.797 154.702 236.074 157.294 234.99 159.516C233.906 162.848 232.821 166.18 231.376 169.142C230.291 172.104 228.846 175.066 227.4 177.657C225.954 179.879 225.231 181.36 224.147 181.36C223.063 181.36 221.978 179.879 221.617 177.287C221.255 173.955 221.255 170.623 221.255 167.291C221.255 163.218 221.617 159.516 222.34 155.073C222.701 151 223.424 147.668 224.147 144.706C224.508 142.855 224.147 141.003 223.063 139.152C221.978 137.671 220.533 136.561 219.087 135.82C217.28 135.08 215.834 134.709 214.027 135.08C212.219 135.08 210.774 136.19 209.328 137.301C208.244 135.45 206.798 133.599 205.352 132.118C203.906 130.637 201.738 129.526 199.93 129.156C194.87 128.045 189.81 128.785 185.473 131.747C181.497 134.709 178.244 138.782 176.075 143.595C173.545 148.779 172.1 154.702 171.377 160.256C170.654 166.18 170.654 172.104 171.738 178.028C172.461 183.211 174.268 188.394 176.798 193.208C178.967 197.28 182.943 200.242 187.28 201.723C190.172 202.464 193.063 202.093 195.593 200.983C198.846 199.502 201.738 197.28 203.906 194.318C206.075 191.356 207.521 187.654 208.966 184.322C210.774 188.394 214.388 191.356 218.364 192.467C220.894 193.208 223.785 192.837 225.954 191.356C228.484 189.875 230.653 188.024 232.46 185.433C233.906 183.211 235.352 180.99 236.436 178.398L235.713 199.872C235.713 201.723 236.797 203.204 238.605 203.574C240.773 204.315 242.58 203.945 244.749 203.204C246.918 202.464 249.086 200.983 250.893 199.131C252.701 197.28 253.785 194.689 253.785 192.097C253.785 182.471 253.785 173.585 253.424 165.439C253.424 157.294 253.424 150.26 253.424 143.595L260.291 143.225H266.435C266.435 148.038 266.435 153.221 265.712 158.405C265.351 163.218 265.351 168.031 265.712 172.844C265.712 176.917 266.797 180.99 268.604 184.692C270.411 188.024 273.664 190.616 277.279 191.727C279.809 192.467 282.7 192.097 284.869 190.616C287.399 189.135 289.568 186.913 291.013 184.692C292.459 182.841 293.543 180.99 294.628 178.768C295.351 183.581 297.158 188.024 299.688 192.467C301.857 196.54 305.832 199.502 310.17 200.983C313.061 201.723 315.953 201.353 318.483 200.242C321.736 198.761 324.627 196.54 326.796 193.578C328.964 190.616 330.41 186.913 331.856 183.581C333.663 187.654 337.278 190.616 341.253 191.727C343.784 192.467 346.675 192.097 348.844 190.616C351.374 189.135 353.542 187.284 355.35 184.692C357.518 181.73 358.964 178.768 360.41 175.806C361.856 172.474 362.94 169.142 364.024 166.18C365.108 163.218 365.831 160.256 366.554 157.664C367.277 155.073 367.639 153.221 368 152.481C368 152.851 368 151.37 367.277 150.26ZM204.991 166.92C204.268 171.363 203.545 175.806 202.099 179.879C201.015 183.211 199.569 186.543 197.4 189.505C195.593 192.097 193.786 193.208 191.979 192.837C190.172 192.467 188.364 190.986 187.641 188.024C186.557 184.692 185.834 181.36 185.834 178.028C185.473 173.955 185.834 169.512 186.196 165.439C186.557 161.367 187.642 157.294 188.726 153.221C189.81 149.889 191.256 146.927 193.425 144.336C194.87 142.114 197.4 141.374 199.93 141.744C201.738 142.114 202.822 143.595 203.545 145.817C204.268 148.408 204.991 151 205.352 153.592C206.075 157.664 205.714 162.478 204.991 166.92ZM327.519 166.92C326.796 171.363 326.073 175.806 324.627 179.879C323.543 183.211 322.097 186.543 319.928 189.505C318.121 192.097 316.314 193.208 314.507 192.837C312.7 192.467 311.254 190.986 310.17 188.024C309.085 184.692 308.362 181.36 308.362 178.028C308.001 173.955 308.362 169.512 308.724 165.439C309.085 161.367 310.17 157.294 311.254 153.221C312.338 149.889 313.784 146.927 315.953 144.336C317.398 142.114 319.928 141.374 322.459 141.744C324.266 142.114 325.35 143.595 326.073 145.817C326.796 148.408 327.519 151 327.88 153.592C328.603 157.664 328.242 162.107 327.519 166.92Z" fill="white"/>
<path d="M257.038 257.26L256.677 255.038C257.038 255.038 257.761 255.408 258.122 255.408C258.484 255.408 258.845 255.408 259.568 255.038C259.929 255.038 260.291 254.668 260.291 254.298C260.652 253.557 261.014 253.187 261.014 252.446C261.014 252.446 261.014 252.076 261.375 251.706L255.954 236.896H258.484L261.375 245.412C261.737 246.522 262.098 247.633 262.46 248.744C262.821 247.633 263.182 246.522 263.544 245.412L266.797 236.896H269.327L263.905 252.076C263.544 253.187 263.182 254.298 262.46 255.408C262.098 256.149 261.737 256.889 261.014 257.26C260.291 257.63 259.568 258 258.845 258C258.122 257.63 257.399 257.63 257.038 257.26ZM248.002 251.336V236.526H250.171V238.747C250.532 238.007 250.893 237.266 251.616 236.526C251.978 236.156 252.701 236.156 253.062 236.156C253.785 236.156 254.869 236.526 255.592 236.896L254.869 239.118C254.508 238.747 253.785 238.747 253.062 238.747C252.701 238.747 251.978 238.747 251.616 239.118C251.255 239.488 250.893 239.858 250.893 240.599C250.532 241.709 250.532 242.45 250.532 243.561V251.336H248.002ZM234.267 242.45H242.219C242.219 241.339 241.857 240.228 241.135 239.488C240.412 238.377 239.327 238.007 238.243 238.007C237.159 238.007 236.074 238.377 235.352 239.118C234.629 239.858 234.267 241.339 234.267 242.45ZM242.219 246.522L244.749 246.893C244.388 248.374 243.665 249.484 242.58 250.595C241.496 251.336 240.05 252.076 238.605 251.706C236.797 251.706 234.99 250.965 233.544 249.855C232.099 248.374 231.376 246.152 231.737 244.301C231.737 242.08 232.099 239.858 233.544 238.377C234.629 236.896 236.436 236.156 238.605 236.156C240.412 236.156 242.219 236.896 243.303 238.377C244.749 239.858 245.11 242.08 245.11 243.931V244.671H234.267C234.267 246.152 234.629 247.263 235.713 248.374C236.436 249.114 237.52 249.484 238.605 249.855C239.327 249.855 240.412 249.484 240.773 249.114C241.135 248.003 241.857 247.263 242.219 246.522ZM218.364 251.336V230.602H220.894V242.45L226.677 236.526H229.93L224.508 242.08L230.653 251.336H227.761L223.063 243.561L221.255 245.412V251.336H218.364ZM212.219 243.931C210.774 244.301 209.689 244.671 208.244 245.042C207.521 245.042 206.798 245.412 206.075 245.412C205.713 245.412 205.352 245.782 204.991 246.152C204.629 246.522 204.629 246.893 204.629 247.263C204.629 248.003 204.991 248.374 205.352 248.744C206.075 249.114 206.798 249.484 207.521 249.484C208.244 249.484 209.328 249.114 210.051 248.744C210.774 248.374 211.135 247.633 211.497 246.893C211.858 246.152 211.858 245.412 211.858 244.301L212.219 243.931ZM212.219 249.484C211.497 250.225 210.412 250.595 209.689 251.336C208.966 251.706 207.882 251.706 206.798 251.706C205.352 251.706 204.268 251.336 203.183 250.595C202.461 249.855 201.738 248.744 201.738 247.633C201.738 246.152 202.461 245.042 203.545 244.301C204.268 243.931 204.629 243.561 205.352 243.561C205.714 243.561 206.436 243.19 207.521 243.19C208.966 243.19 210.412 242.82 211.858 242.45C211.858 242.08 211.858 241.709 211.858 241.709C211.858 240.969 211.497 240.228 211.135 239.488C210.412 238.747 209.328 238.377 208.244 238.747C207.521 238.747 206.436 238.747 205.713 239.488C204.991 240.228 204.629 240.969 204.629 241.709L202.099 241.339C202.099 240.599 202.461 239.488 203.183 238.747C203.906 238.007 204.629 237.637 205.352 237.266C206.436 236.896 207.521 236.896 208.605 236.896C209.689 236.896 210.774 236.896 211.497 237.266C212.942 237.637 213.665 238.747 214.027 240.228C214.027 240.969 214.027 241.709 214.027 242.45V245.782C214.027 247.263 214.027 248.744 214.027 250.225C214.027 250.965 214.388 251.336 214.749 252.076H212.219C212.219 250.965 212.219 250.225 212.219 249.484ZM189.449 243.561C189.449 245.042 189.449 246.152 190.172 247.263C190.894 249.114 193.063 249.855 194.87 249.114C195.232 248.744 195.593 248.744 195.955 248.003C197.4 245.412 197.4 242.08 195.955 239.488C195.232 238.747 194.147 238.007 193.063 238.007C191.979 238.007 190.894 238.377 190.172 239.488C189.449 240.969 189.087 242.45 189.449 243.561ZM189.449 251.336H187.28V230.602H189.81V238.007C190.894 236.896 192.34 236.156 193.786 236.156C194.509 236.156 195.593 236.156 196.316 236.896C197.039 237.266 197.762 237.637 198.123 238.377C198.846 239.118 199.208 239.858 199.208 240.969C199.569 242.08 199.569 242.82 199.569 243.931C199.569 246.152 199.208 248.003 197.762 249.855C196.678 251.336 194.87 252.076 193.425 252.076C191.617 252.076 190.172 251.336 189.449 249.855V251.336ZM170.654 246.893L166.317 241.339C165.232 242.08 164.509 242.82 163.786 243.561C163.425 244.301 163.064 245.042 163.064 245.782C163.064 246.893 163.425 247.633 164.148 248.374C164.871 249.484 165.955 249.855 167.039 249.855C167.762 249.855 168.485 249.484 169.208 249.114C169.57 248.374 170.292 247.633 170.654 246.893ZM167.039 238.377C167.762 238.007 168.485 237.266 169.208 236.526C169.57 236.156 169.57 235.415 169.57 235.045C169.57 234.305 169.208 233.934 168.847 233.194C168.485 232.824 167.762 232.453 167.401 232.453C166.678 232.453 166.317 232.824 165.594 233.194C165.232 233.564 164.871 234.305 164.871 234.675C164.871 235.045 164.871 235.415 165.232 235.785C165.594 236.156 165.594 236.526 165.955 236.896L167.039 238.377ZM172.1 249.114C171.377 249.855 170.292 250.595 169.57 251.336C168.485 251.706 167.401 252.076 166.317 252.076C164.509 252.076 162.702 251.336 161.618 249.855C160.534 248.744 160.172 247.263 160.172 246.152C160.172 245.042 160.534 243.931 161.618 242.82C162.702 241.709 163.786 240.599 165.232 240.228C164.509 239.488 163.786 238.747 163.425 237.637C163.064 236.896 163.064 236.526 163.064 235.785C163.064 234.675 163.425 233.194 164.509 232.453C165.594 231.713 166.678 230.972 168.124 230.972C169.208 230.972 170.654 231.343 171.377 232.083C172.1 232.824 172.461 233.934 172.822 235.045C172.822 236.896 171.377 238.747 168.847 240.228L172.461 245.042C172.822 243.931 173.184 243.19 173.545 242.08L176.075 242.82C175.714 244.301 174.991 245.782 174.268 247.263C174.991 248.374 176.075 249.484 177.521 250.225L175.714 252.076C174.268 250.965 173.184 249.855 172.1 249.114ZM141.377 234.675L143.184 230.602H146.437L143.546 234.675H141.377ZM139.209 242.45H147.16C147.16 241.339 146.799 240.228 146.076 239.488C145.353 238.377 144.269 238.007 143.184 238.007C142.1 238.007 141.016 238.377 140.293 239.118C139.57 239.858 139.209 241.339 139.209 242.45ZM147.16 246.522L149.69 246.893C149.329 248.374 148.606 249.484 147.522 250.595C146.437 251.336 144.992 252.076 143.546 251.706C141.739 251.706 139.931 250.965 138.486 249.855C137.04 248.374 136.678 246.152 136.678 244.301C136.678 242.08 137.04 239.858 138.486 238.377C139.57 236.896 141.377 236.156 143.184 236.156C144.992 236.156 146.799 236.896 147.883 238.377C149.329 239.858 149.69 242.08 149.69 243.931C149.69 244.301 149.69 244.301 149.69 244.671H138.847C138.847 246.152 139.209 247.263 140.293 248.374C141.016 249.114 142.1 249.855 143.184 249.855C143.907 249.855 144.992 249.484 145.353 249.114C146.437 248.003 147.16 247.263 147.16 246.522ZM130.173 251.336V238.377H128.004V236.526H130.173V235.045C130.173 234.305 130.173 233.564 130.534 232.824C130.895 232.083 131.257 231.713 131.618 231.343C132.341 230.972 133.064 230.602 134.148 230.602C134.871 230.602 135.594 230.602 136.317 230.972L135.956 233.194C135.594 233.194 134.871 233.194 134.51 233.194C133.787 233.194 133.426 233.194 133.064 233.564C132.703 233.934 132.703 234.675 132.703 235.415V236.526H135.594V238.377H132.703V251.336H130.173ZM123.305 243.931C121.859 244.301 120.775 244.671 119.329 245.042C118.606 245.042 117.884 245.412 117.161 245.412C116.799 245.412 116.438 245.782 116.076 246.152C115.354 247.263 115.715 248.374 116.438 249.114C117.161 249.484 117.884 249.855 118.606 249.855C119.329 249.855 120.414 249.484 121.137 249.114C121.859 248.744 122.582 248.003 122.582 247.263C122.944 246.522 122.944 245.782 122.944 244.671L123.305 243.931ZM123.667 249.484C122.944 250.225 122.221 250.965 121.137 251.336C120.414 251.706 119.329 251.706 118.245 251.706C116.799 251.706 115.715 251.336 114.631 250.595C113.908 249.855 113.185 248.744 113.185 247.633C113.185 246.893 113.185 246.152 113.546 245.782C113.908 245.042 114.269 244.671 114.992 244.301C115.715 243.931 116.076 243.561 116.799 243.561C117.161 243.561 117.884 243.19 118.968 243.19C120.414 243.19 121.859 242.82 123.305 242.45C123.305 242.08 123.305 241.709 123.305 241.709C123.305 240.969 123.305 240.228 122.582 239.488C121.859 238.747 120.775 238.377 119.691 238.747C118.968 238.747 117.884 238.747 117.161 239.488C116.438 240.228 116.076 240.969 116.076 241.709L113.546 241.339C113.546 240.599 113.908 239.488 114.631 238.747C115.354 238.007 116.076 237.637 116.799 237.266C117.884 236.896 118.968 236.896 120.052 236.896C121.137 236.896 121.859 236.896 122.944 237.266C124.39 237.637 125.112 238.747 125.474 240.228C125.474 240.969 125.474 241.709 125.474 242.45V245.782C125.474 247.263 125.474 248.744 125.474 250.225C125.474 250.965 125.835 251.336 126.197 252.076H124.028C123.667 250.965 123.667 250.225 123.667 249.484ZM109.57 245.782L112.101 246.152C111.739 247.633 111.378 249.114 109.932 250.225C108.848 251.336 107.402 251.706 105.956 251.706C104.149 251.706 102.342 250.965 101.257 249.855C99.8116 248.374 99.4502 246.152 99.4502 244.301C99.4502 242.82 99.8116 241.339 100.173 240.228C100.535 239.118 101.619 238.007 102.703 237.637C103.787 236.896 104.872 236.526 106.318 236.896C107.763 236.896 109.209 237.266 110.293 238.007C111.378 238.747 112.101 240.228 112.101 241.339L109.57 241.709C109.57 240.969 108.848 239.858 108.486 239.488C107.763 239.118 107.04 238.747 106.318 238.747C105.233 238.747 104.149 239.118 103.426 240.228C102.703 241.339 101.98 243.19 102.342 244.671C102.342 246.152 102.703 247.633 103.426 249.114C104.149 249.855 105.233 250.595 106.318 250.595C107.04 250.595 108.125 250.225 108.848 249.855C109.209 248.003 109.57 246.893 109.57 245.782Z" fill="white"/>
<line x1="474" y1="301.015" x2="474" stroke="white" stroke-width="4"/>
<path d="M603.93 118V69H622.27C627.87 69 632.327 70.4 635.64 73.2C638.953 76 640.61 79.8267 640.61 84.68C640.61 89.7667 638.767 93.71 635.08 96.51C631.44 99.31 626.867 100.71 621.36 100.71H609.46V118H603.93ZM609.46 95.67H621.57C625.63 95.67 628.873 94.69 631.3 92.73C633.773 90.7233 635.01 88.0633 635.01 84.75C635.01 81.3433 633.82 78.73 631.44 76.91C629.107 75.0433 625.91 74.11 621.85 74.11H609.46V95.67ZM663.078 118.77C658.784 118.77 655.401 117.463 652.928 114.85C650.454 112.19 649.218 108.667 649.218 104.28V81.81H654.608V102.95C654.608 106.357 655.471 109.04 657.198 111C658.971 112.913 661.444 113.87 664.618 113.87C667.744 113.87 670.334 112.82 672.388 110.72C674.441 108.62 675.468 105.89 675.468 102.53V81.81H680.788V118H675.468V111.7C672.528 116.413 668.398 118.77 663.078 118.77ZM692.913 118V81.81H698.303V91.26C699.703 88.1333 701.686 85.6367 704.253 83.77C706.819 81.9033 709.759 81.04 713.073 81.18V86.99H712.653C708.499 86.99 705.069 88.4367 702.363 91.33C699.656 94.2233 698.303 98.3067 698.303 103.58V118H692.913ZM736.019 118.84C730.793 118.84 726.383 116.997 722.789 113.31C719.243 109.577 717.469 105.12 717.469 99.94C717.469 94.76 719.243 90.3267 722.789 86.64C726.383 82.9067 730.793 81.04 736.019 81.04C741.619 81.04 746.449 83.1867 750.509 87.48L747.079 91.12C743.719 87.5733 740.009 85.8 735.949 85.8C732.309 85.8 729.229 87.1767 726.709 89.93C724.236 92.6367 722.999 95.9733 722.999 99.94C722.999 103.86 724.259 107.197 726.779 109.95C729.346 112.657 732.519 114.01 736.299 114.01C740.173 114.01 743.813 112.19 747.219 108.55L750.789 111.84C746.589 116.507 741.666 118.84 736.019 118.84ZM759.7 118V66.9H765.09V88.11C767.936 83.3967 772.066 81.04 777.48 81.04C781.773 81.04 785.156 82.37 787.63 85.03C790.103 87.6433 791.34 91.1433 791.34 95.53V118H785.95V96.86C785.95 93.4533 785.063 90.7933 783.29 88.88C781.563 86.92 779.113 85.94 775.94 85.94C772.813 85.94 770.223 86.99 768.17 89.09C766.116 91.19 765.09 93.92 765.09 97.28V118H759.7ZM813.614 118.77C809.928 118.77 806.754 117.767 804.094 115.76C801.434 113.753 800.104 110.953 800.104 107.36C800.104 103.58 801.504 100.663 804.304 98.61C807.104 96.5567 810.861 95.53 815.574 95.53C819.308 95.53 822.994 96.0433 826.634 97.07V95.95C826.634 92.7767 825.701 90.35 823.834 88.67C821.968 86.99 819.331 86.15 815.924 86.15C812.378 86.15 808.714 87.0133 804.934 88.74L803.324 84.33C807.804 82.2767 812.191 81.25 816.484 81.25C821.618 81.25 825.514 82.58 828.174 85.24C830.694 87.76 831.954 91.3067 831.954 95.88V118H826.634V112.61C823.414 116.717 819.074 118.77 813.614 118.77ZM814.664 114.43C818.024 114.43 820.871 113.52 823.204 111.7C825.538 109.88 826.704 107.547 826.704 104.7V101.34C823.158 100.313 819.634 99.8 816.134 99.8C812.821 99.8 810.231 100.477 808.364 101.83C806.498 103.137 805.564 104.933 805.564 107.22C805.564 109.413 806.428 111.163 808.154 112.47C809.928 113.777 812.098 114.43 814.664 114.43ZM855.342 118.7C852.728 118.7 850.068 118.233 847.362 117.3C844.702 116.32 842.368 115.013 840.362 113.38L843.092 109.53C847.198 112.61 851.375 114.15 855.622 114.15C857.815 114.15 859.612 113.613 861.012 112.54C862.412 111.467 863.112 110.043 863.112 108.27C863.112 106.637 862.342 105.377 860.802 104.49C859.308 103.603 857.068 102.74 854.082 101.9C852.262 101.387 850.815 100.92 849.742 100.5C848.668 100.08 847.455 99.4967 846.102 98.75C844.748 97.9567 843.745 96.9767 843.092 95.81C842.438 94.5967 842.112 93.1733 842.112 91.54C842.112 88.46 843.255 85.9633 845.542 84.05C847.875 82.1367 850.838 81.18 854.432 81.18C859.098 81.18 863.438 82.51 867.452 85.17L865.002 89.23C861.408 86.8967 857.838 85.73 854.292 85.73C852.192 85.73 850.488 86.2433 849.182 87.27C847.922 88.25 847.292 89.5333 847.292 91.12C847.292 91.7733 847.478 92.38 847.852 92.94C848.225 93.5 848.645 93.9667 849.112 94.34C849.578 94.7133 850.302 95.11 851.282 95.53C852.308 95.95 853.125 96.2533 853.732 96.44C854.338 96.6267 855.295 96.93 856.602 97.35C858.328 97.8633 859.752 98.3533 860.872 98.82C861.992 99.2867 863.182 99.9167 864.442 100.71C865.702 101.503 866.635 102.507 867.242 103.72C867.895 104.887 868.222 106.263 868.222 107.85C868.222 111.21 867.008 113.87 864.582 115.83C862.155 117.743 859.075 118.7 855.342 118.7ZM878.375 73.9V67.95H884.535V73.9H878.375ZM878.725 118V81.81H884.115V118H878.725ZM896.624 118V81.81H902.014V88.11C904.86 83.3967 908.99 81.04 914.404 81.04C918.697 81.04 922.08 82.37 924.554 85.03C927.027 87.6433 928.264 91.1433 928.264 95.53V118H922.874V96.86C922.874 93.4533 921.987 90.7933 920.214 88.88C918.487 86.92 916.037 85.94 912.864 85.94C909.737 85.94 907.147 86.99 905.094 89.09C903.04 91.19 902.014 93.92 902.014 97.28V118H896.624ZM955.788 129.34C949.675 129.34 944.192 127.66 939.338 124.3L941.788 120.1C946.035 123.18 950.678 124.72 955.718 124.72C959.778 124.72 962.975 123.6 965.308 121.36C967.688 119.167 968.878 115.993 968.878 111.84V107.57C965.052 112.657 960.315 115.2 954.668 115.2C950.095 115.2 946.105 113.637 942.698 110.51C939.338 107.337 937.658 103.207 937.658 98.12C937.658 93.0333 939.362 88.9267 942.768 85.8C946.175 82.6267 950.142 81.04 954.668 81.04C960.455 81.04 965.168 83.4667 968.808 88.32V81.81H974.198V111.7C974.198 117.16 972.658 121.43 969.578 124.51C966.358 127.73 961.762 129.34 955.788 129.34ZM955.718 110.44C959.265 110.44 962.368 109.273 965.028 106.94C967.688 104.607 969.018 101.643 969.018 98.05C969.018 94.4567 967.688 91.5167 965.028 89.23C962.415 86.9433 959.312 85.8 955.718 85.8C952.172 85.8 949.185 86.9433 946.758 89.23C944.378 91.47 943.188 94.4333 943.188 98.12C943.188 101.667 944.402 104.607 946.828 106.94C949.302 109.273 952.265 110.44 955.718 110.44ZM603.93 223V174H620.94C628.593 174 634.847 176.333 639.7 181C644.553 185.62 646.98 191.453 646.98 198.5C646.98 205.5 644.53 211.333 639.63 216C634.777 220.667 628.547 223 620.94 223H603.93ZM609.46 217.89H620.94C627.053 217.89 631.953 216.07 635.64 212.43C639.373 208.743 641.24 204.1 641.24 198.5C641.24 192.947 639.373 188.327 635.64 184.64C631.907 180.953 627.007 179.11 620.94 179.11H609.46V217.89ZM660.996 207.11C661.369 210.797 662.746 213.737 665.126 215.93C667.553 218.077 670.423 219.15 673.736 219.15C678.076 219.15 681.879 217.447 685.146 214.04L688.506 217.05C684.446 221.577 679.476 223.84 673.596 223.84C668.509 223.84 664.216 222.09 660.716 218.59C657.263 215.043 655.536 210.493 655.536 204.94C655.536 199.667 657.193 195.21 660.506 191.57C663.819 187.883 667.949 186.04 672.896 186.04C678.076 186.04 682.183 187.86 685.216 191.5C688.249 195.14 689.766 199.713 689.766 205.22C689.766 205.92 689.743 206.55 689.696 207.11H660.996ZM660.996 202.77H684.306C683.979 199.27 682.813 196.377 680.806 194.09C678.846 191.757 676.163 190.59 672.756 190.59C669.676 190.59 667.039 191.733 664.846 194.02C662.653 196.307 661.369 199.223 660.996 202.77ZM699.202 234.2V186.81H704.592V194.09C708.232 188.723 712.852 186.04 718.452 186.04C723.072 186.04 727.108 187.767 730.562 191.22C734.015 194.627 735.742 199.2 735.742 204.94C735.742 210.587 734.015 215.137 730.562 218.59C727.108 222.043 723.072 223.77 718.452 223.77C712.758 223.77 708.138 221.203 704.592 216.07V234.2H699.202ZM717.472 218.94C721.112 218.94 724.145 217.68 726.572 215.16C728.998 212.593 730.212 209.163 730.212 204.87C730.212 200.717 728.975 197.357 726.502 194.79C724.028 192.177 721.018 190.87 717.472 190.87C713.972 190.87 710.915 192.2 708.302 194.86C705.688 197.52 704.382 200.88 704.382 204.94C704.382 209 705.688 212.36 708.302 215.02C710.915 217.633 713.972 218.94 717.472 218.94ZM756.466 223.77C752.779 223.77 749.606 222.767 746.946 220.76C744.286 218.753 742.956 215.953 742.956 212.36C742.956 208.58 744.356 205.663 747.156 203.61C749.956 201.557 753.713 200.53 758.426 200.53C762.159 200.53 765.846 201.043 769.486 202.07V200.95C769.486 197.777 768.553 195.35 766.686 193.67C764.819 191.99 762.183 191.15 758.776 191.15C755.229 191.15 751.566 192.013 747.786 193.74L746.176 189.33C750.656 187.277 755.043 186.25 759.336 186.25C764.469 186.25 768.366 187.58 771.026 190.24C773.546 192.76 774.806 196.307 774.806 200.88V223H769.486V217.61C766.266 221.717 761.926 223.77 756.466 223.77ZM757.516 219.43C760.876 219.43 763.723 218.52 766.056 216.7C768.389 214.88 769.556 212.547 769.556 209.7V206.34C766.009 205.313 762.486 204.8 758.986 204.8C755.673 204.8 753.083 205.477 751.216 206.83C749.349 208.137 748.416 209.933 748.416 212.22C748.416 214.413 749.279 216.163 751.006 217.47C752.779 218.777 754.949 219.43 757.516 219.43ZM786.223 223V186.81H791.613V196.26C793.013 193.133 794.996 190.637 797.563 188.77C800.13 186.903 803.07 186.04 806.383 186.18V191.99H805.963C801.81 191.99 798.38 193.437 795.673 196.33C792.966 199.223 791.613 203.307 791.613 208.58V223H786.223ZM826.702 223.63C823.576 223.63 821.079 222.813 819.212 221.18C817.392 219.5 816.482 216.91 816.482 213.41V191.57H811.442V186.81H816.482V175.89H821.872V186.81H833.352V191.57H821.872V212.71C821.872 216.723 823.902 218.73 827.962 218.73C829.736 218.73 831.486 218.31 833.212 217.47V222.09C831.252 223.117 829.082 223.63 826.702 223.63ZM842.893 223V186.81H848.283V192.9C851.316 188.327 855.213 186.04 859.973 186.04C865.386 186.04 869.26 188.443 871.593 193.25C874.72 188.443 878.966 186.04 884.333 186.04C888.486 186.04 891.753 187.347 894.133 189.96C896.56 192.573 897.773 196.12 897.773 200.6V223H892.383V201.86C892.383 198.36 891.543 195.677 889.863 193.81C888.23 191.897 885.943 190.94 883.003 190.94C880.156 190.94 877.776 191.943 875.863 193.95C873.95 195.957 872.993 198.687 872.993 202.14V223H867.673V201.72C867.673 198.36 866.833 195.723 865.153 193.81C863.52 191.897 861.256 190.94 858.363 190.94C855.47 190.94 853.066 192.013 851.153 194.16C849.24 196.307 848.283 199.037 848.283 202.35V223H842.893ZM912.695 207.11C913.068 210.797 914.445 213.737 916.825 215.93C919.252 218.077 922.122 219.15 925.435 219.15C929.775 219.15 933.578 217.447 936.845 214.04L940.205 217.05C936.145 221.577 931.175 223.84 925.295 223.84C920.208 223.84 915.915 222.09 912.415 218.59C908.962 215.043 907.235 210.493 907.235 204.94C907.235 199.667 908.892 195.21 912.205 191.57C915.518 187.883 919.648 186.04 924.595 186.04C929.775 186.04 933.882 187.86 936.915 191.5C939.948 195.14 941.465 199.713 941.465 205.22C941.465 205.92 941.442 206.55 941.395 207.11H912.695ZM912.695 202.77H936.005C935.678 199.27 934.512 196.377 932.505 194.09C930.545 191.757 927.862 190.59 924.455 190.59C921.375 190.59 918.738 191.733 916.545 194.02C914.352 196.307 913.068 199.223 912.695 202.77ZM950.901 223V186.81H956.291V193.11C959.138 188.397 963.268 186.04 968.681 186.04C972.974 186.04 976.358 187.37 978.831 190.03C981.304 192.643 982.541 196.143 982.541 200.53V223H977.151V201.86C977.151 198.453 976.264 195.793 974.491 193.88C972.764 191.92 970.314 190.94 967.141 190.94C964.014 190.94 961.424 191.99 959.371 194.09C957.318 196.19 956.291 198.92 956.291 202.28V223H950.901ZM1006.15 223.63C1003.02 223.63 1000.52 222.813 998.656 221.18C996.836 219.5 995.926 216.91 995.926 213.41V191.57H990.886V186.81H995.926V175.89H1001.32V186.81H1012.8V191.57H1001.32V212.71C1001.32 216.723 1003.35 218.73 1007.41 218.73C1009.18 218.73 1010.93 218.31 1012.66 217.47V222.09C1010.7 223.117 1008.53 223.63 1006.15 223.63Z" fill="white"/>
</svg>
