<svg width="368" height="214" viewBox="0 0 368 214" fill="none" xmlns="http://www.w3.org/2000/svg">
<path d="M181.497 30.7301C181.858 36.2837 179.328 41.4671 174.991 44.4291C170.654 47.7612 165.232 49.6125 159.449 49.6125C158.726 49.6125 158.003 49.6125 157.281 49.2422C156.196 48.872 155.112 48.5017 154.028 48.1315C152.943 47.7612 151.859 47.391 151.136 46.6505C150.413 46.2803 150.052 45.5398 150.052 44.7993C150.052 42.9481 151.136 41.4671 152.582 41.0969C154.389 39.9862 156.196 39.2457 158.365 38.5052C160.172 37.7647 162.341 37.0242 164.148 36.2837C165.955 35.5433 166.678 34.4325 166.678 32.9516C166.678 30.3599 164.871 28.1384 161.256 26.2872C156.919 24.0657 152.582 22.5848 147.883 21.8443C142.462 20.7336 137.04 19.6228 131.257 19.2526C125.474 18.5121 120.775 18.5121 116.799 18.5121C112.823 18.5121 108.125 18.8824 101.619 19.2526C95.1129 19.6228 88.607 20.7336 81.3782 21.8443C74.1494 22.955 66.9206 24.436 59.3304 26.6574C52.463 28.5087 45.5956 30.7301 39.0897 33.692C33.6681 35.9135 28.608 39.2457 23.9092 43.3183C20.2948 46.2803 18.1262 50.7232 17.4033 55.5363C17.0419 58.128 18.8491 60.7197 22.4635 63.3114C27.1622 66.2734 31.8609 68.8651 36.9211 70.7163C42.7041 73.308 49.5715 75.5294 57.1617 77.7509C64.752 79.9723 72.3422 82.1938 79.9324 84.4152C87.5227 86.6367 94.7515 88.4879 101.619 90.7094C108.486 92.9308 114.269 94.782 118.606 96.6332C122.944 98.4844 127.642 100.706 132.703 103.668C137.401 106.26 142.1 109.592 146.437 112.924C150.775 116.256 154.389 120.329 157.281 124.772C160.172 128.844 161.618 134.028 161.618 139.211C161.618 143.654 160.534 148.097 158.003 151.799C155.473 155.502 152.22 158.464 148.245 160.315C143.907 162.536 139.209 164.388 134.51 165.128C129.088 166.239 124.028 166.609 118.606 166.609C106.679 166.609 94.7515 165.498 83.1854 162.907C71.6193 160.685 60.4147 156.983 49.21 152.54C44.8728 150.689 40.8969 148.837 36.5596 146.616C32.2224 144.394 28.2465 141.433 24.6321 138.1C21.0177 135.138 18.1262 131.806 15.2347 127.734C12.7046 124.031 11.6203 119.588 11.6203 115.145C11.6203 112.554 11.9817 110.332 13.066 108.111C14.1504 105.889 15.5961 103.668 17.4033 101.817C19.572 99.9654 21.7406 98.4844 24.2707 97.3737C27.1622 96.263 30.4152 95.5225 33.6681 95.5225C34.7524 95.5225 35.4753 95.5225 36.5596 95.8927C37.644 95.8927 38.7283 96.263 39.4512 96.6332C40.174 97.0035 40.5355 97.744 40.5355 98.1142C40.5355 98.8547 39.8126 99.5952 38.3668 100.336C35.8368 101.817 33.6681 103.298 31.4995 104.408C29.6923 105.519 27.8851 106.26 26.0779 107.74C24.6321 108.481 23.5478 109.962 22.8249 111.073C22.102 112.183 21.7406 113.664 21.7406 115.145C21.7406 117.737 22.4635 119.958 23.9092 121.81C25.355 124.031 27.1622 125.882 29.3308 127.734C31.4995 129.585 33.6681 131.066 35.8368 132.547C37.644 133.657 39.4512 134.768 41.6198 135.879C52.8244 141.803 64.752 146.246 77.0409 149.208C89.3299 152.17 102.342 153.651 114.992 153.651C117.161 153.651 120.414 153.651 124.028 153.28C127.642 153.28 131.618 152.54 135.233 151.799C138.486 151.059 141.739 149.578 144.63 147.727C147.16 145.875 148.606 142.913 148.606 139.581C148.606 134.398 146.076 129.955 142.1 126.993C137.401 122.92 131.98 119.218 126.197 116.626C119.691 113.294 112.823 110.702 105.956 108.481C98.7273 106.26 92.5828 104.038 87.1612 102.557C71.2579 97.7439 57.8846 93.6713 46.68 90.3391C37.2825 87.3772 28.2465 84.045 19.572 79.6021C13.7889 77.0104 8.72877 73.308 4.39149 68.8651C1.13853 65.1626 -0.307224 60.3495 0.054216 55.5363C0.415656 48.5017 2.94573 41.8374 7.28301 36.2837C11.9817 30.3599 17.4033 25.5467 23.9092 21.8443C31.138 17.7716 38.7283 14.0692 46.68 11.8478C55.3545 8.14533 63.6676 5.92388 71.9807 4.44291C79.9324 2.96194 87.8841 1.85121 95.8358 1.11073C103.426 0.370241 109.932 0 115.354 0C118.245 0 121.498 -3.58608e-07 125.835 0.370242C130.534 0.740484 135.233 1.11073 139.57 2.22145C144.63 2.96194 149.329 4.4429 154.389 5.55363C159.088 7.0346 163.425 8.88581 167.762 11.1073C171.377 13.3287 174.63 15.9204 177.521 19.6228C180.413 22.5848 181.858 26.6574 181.497 30.7301Z" fill="white"/>
<path d="M367.277 106.26C366.554 105.519 365.831 104.779 364.747 104.408C363.663 104.038 362.578 104.408 361.494 104.779C360.41 105.519 359.325 106.63 359.325 108.111C358.964 110.702 358.241 113.294 357.157 115.516C356.072 118.848 354.988 122.18 353.542 125.142C352.458 128.104 351.012 130.696 349.567 133.657C348.121 135.879 347.398 137.36 346.314 137.36C345.229 137.36 344.145 135.879 343.784 133.287C343.422 129.955 343.061 126.623 343.422 123.291C343.422 119.218 343.784 115.516 344.506 111.073C344.868 107 345.591 103.668 346.314 100.706C346.675 98.8547 346.314 97.0035 345.229 95.5225C344.145 94.0415 342.699 92.9308 341.253 92.1903C339.446 91.4498 337.639 91.0796 335.832 91.4498C334.025 91.4498 332.579 92.5606 331.133 93.6713C330.049 91.8201 328.603 89.9689 327.157 88.1177C325.712 86.6367 323.543 85.526 321.736 85.1557V85.526C316.676 84.4152 311.615 85.1557 307.278 88.1177C303.302 91.0796 300.049 95.1523 297.881 99.9654C296.796 102.557 295.712 105.519 294.989 108.111C294.628 109.221 294.266 110.702 294.266 111.813C293.905 112.924 293.543 114.405 293.182 115.516C292.098 118.848 291.013 122.18 289.929 125.142C288.845 128.104 287.76 131.066 286.315 133.657C284.869 135.879 284.507 137.36 283.062 137.36C281.616 137.36 280.893 135.879 280.532 133.287C280.17 129.955 280.17 126.623 280.17 123.291C280.17 119.218 280.532 115.516 281.254 111.073C281.977 107 282.339 103.668 283.062 100.706C283.423 99.2249 283.062 97.7439 282.7 96.6332C281.977 95.5225 281.254 94.4118 280.17 93.301C279.086 92.5606 278.001 91.8201 276.556 91.4498C275.11 91.0796 273.664 91.0796 272.58 91.0796H263.905C260.291 91.0796 256.677 91.4498 253.424 91.8201C253.424 84.045 253.785 77.3806 254.146 72.1972C254.508 67.0138 254.869 62.5709 255.231 59.2388C255.592 56.6471 255.954 54.4256 257.038 52.2042C257.761 50.7232 258.484 49.9827 259.568 49.9827C260.291 49.9827 261.014 50.7232 261.737 51.8339C262.098 53.3149 262.46 55.1661 262.46 56.6471C262.821 58.8685 262.821 61.09 262.46 63.3114C262.46 65.1626 262.098 66.6436 261.737 68.4948C261.375 69.2353 261.014 70.346 261.014 71.4568V72.1972C261.014 72.5675 261.014 73.308 261.375 73.6782C262.098 77.0104 264.267 79.6021 267.52 80.3426C271.134 81.4533 275.11 81.8235 278.724 81.4533C280.893 81.0831 282.7 80.7128 284.507 79.9723C286.315 79.2318 287.76 78.1211 289.206 77.0104C290.652 75.8997 291.375 74.4187 292.098 72.9377C292.82 71.4568 292.82 69.6055 292.82 68.1246V68.4948C292.459 65.1626 290.29 62.2007 287.399 61.09C283.784 59.609 279.809 59.2388 275.833 59.9792C275.833 57.7578 275.471 55.9066 274.749 54.0554C274.026 51.8339 272.941 49.9827 271.496 48.1315C268.604 46.6505 267.158 45.1696 264.99 44.0588C263.182 42.9481 261.014 42.5779 258.484 42.5779C255.231 42.5779 251.978 43.6886 249.086 45.5398C246.195 47.7613 244.026 50.3529 242.942 53.6851C241.135 58.4983 240.05 63.6817 239.327 68.8651C238.605 75.1592 237.882 82.9343 237.52 92.1903C235.713 92.1903 233.906 92.5606 232.099 93.6713C231.014 94.4118 230.653 95.5225 230.653 96.6332C230.653 97.7439 231.376 98.8547 232.46 99.5952C233.906 100.706 235.713 101.076 237.52 101.076L237.159 107.74V108.111C236.797 110.702 236.074 113.294 234.99 115.516C233.906 118.848 232.821 122.18 231.376 125.142C230.291 128.104 228.846 131.066 227.4 133.657C225.954 135.879 225.231 137.36 224.147 137.36C223.063 137.36 221.978 135.879 221.617 133.287C221.255 129.955 221.255 126.623 221.255 123.291C221.255 119.218 221.617 115.516 222.34 111.073C222.701 107 223.424 103.668 224.147 100.706C224.508 98.8547 224.147 97.0035 223.063 95.1523C221.978 93.6713 220.533 92.5606 219.087 91.8201C217.28 91.0796 215.834 90.7094 214.027 91.0796C212.219 91.0796 210.774 92.1903 209.328 93.301C208.244 91.4498 206.798 89.5986 205.352 88.1177C203.906 86.6367 201.738 85.526 199.93 85.1557C194.87 84.045 189.81 84.7855 185.473 87.7474C181.497 90.7094 178.244 94.782 176.075 99.5952C173.545 104.779 172.1 110.702 171.377 116.256C170.654 122.18 170.654 128.104 171.738 134.028C172.461 139.211 174.268 144.394 176.798 149.208C178.967 153.28 182.943 156.242 187.28 157.723C190.172 158.464 193.063 158.093 195.593 156.983C198.846 155.502 201.738 153.28 203.906 150.318C206.075 147.356 207.521 143.654 208.966 140.322C210.774 144.394 214.388 147.356 218.364 148.467C220.894 149.208 223.785 148.837 225.954 147.356C228.484 145.875 230.653 144.024 232.46 141.433C233.906 139.211 235.352 136.99 236.436 134.398L235.713 155.872C235.713 157.723 236.797 159.204 238.605 159.574C240.773 160.315 242.58 159.945 244.749 159.204C246.918 158.464 249.086 156.983 250.893 155.131C252.701 153.28 253.785 150.689 253.785 148.097C253.785 138.471 253.785 129.585 253.424 121.439C253.424 113.294 253.424 106.26 253.424 99.5952L260.291 99.2249H266.435C266.435 104.038 266.435 109.221 265.712 114.405C265.351 119.218 265.351 124.031 265.712 128.844C265.712 132.917 266.797 136.99 268.604 140.692C270.411 144.024 273.664 146.616 277.279 147.727C279.809 148.467 282.7 148.097 284.869 146.616C287.399 145.135 289.568 142.913 291.013 140.692C292.459 138.841 293.543 136.99 294.628 134.768C295.351 139.581 297.158 144.024 299.688 148.467C301.857 152.54 305.832 155.502 310.17 156.983C313.061 157.723 315.953 157.353 318.483 156.242C321.736 154.761 324.627 152.54 326.796 149.578C328.964 146.616 330.41 142.913 331.856 139.581C333.663 143.654 337.278 146.616 341.253 147.727C343.784 148.467 346.675 148.097 348.844 146.616C351.374 145.135 353.542 143.284 355.35 140.692C357.518 137.73 358.964 134.768 360.41 131.806C361.856 128.474 362.94 125.142 364.024 122.18C365.108 119.218 365.831 116.256 366.554 113.664C367.277 111.073 367.639 109.221 368 108.481C368 108.851 368 107.37 367.277 106.26ZM204.991 122.92C204.268 127.363 203.545 131.806 202.099 135.879C201.015 139.211 199.569 142.543 197.4 145.505C195.593 148.097 193.786 149.208 191.979 148.837C190.172 148.467 188.364 146.986 187.641 144.024C186.557 140.692 185.834 137.36 185.834 134.028C185.473 129.955 185.834 125.512 186.196 121.439C186.557 117.367 187.642 113.294 188.726 109.221C189.81 105.889 191.256 102.927 193.425 100.336C194.87 98.1142 197.4 97.3737 199.93 97.7439C201.738 98.1142 202.822 99.5952 203.545 101.817C204.268 104.408 204.991 107 205.352 109.592C206.075 113.664 205.714 118.478 204.991 122.92ZM327.519 122.92C326.796 127.363 326.073 131.806 324.627 135.879C323.543 139.211 322.097 142.543 319.928 145.505C318.121 148.097 316.314 149.208 314.507 148.837C312.7 148.467 311.254 146.986 310.17 144.024C309.085 140.692 308.362 137.36 308.362 134.028C308.001 129.955 308.362 125.512 308.724 121.439C309.085 117.367 310.17 113.294 311.254 109.221C312.338 105.889 313.784 102.927 315.953 100.336C317.398 98.1142 319.928 97.3737 322.459 97.7439C324.266 98.1142 325.35 99.5952 326.073 101.817C326.796 104.408 327.519 107 327.88 109.592C328.603 113.664 328.242 118.107 327.519 122.92Z" fill="white"/>
<path d="M257.038 213.26L256.677 211.038C257.038 211.038 257.761 211.408 258.122 211.408C258.484 211.408 258.845 211.408 259.568 211.038C259.929 211.038 260.291 210.668 260.291 210.298C260.652 209.557 261.014 209.187 261.014 208.446C261.014 208.446 261.014 208.076 261.375 207.706L255.954 192.896H258.484L261.375 201.412C261.737 202.522 262.098 203.633 262.46 204.744C262.821 203.633 263.182 202.522 263.544 201.412L266.797 192.896H269.327L263.905 208.076C263.544 209.187 263.182 210.298 262.46 211.408C262.098 212.149 261.737 212.889 261.014 213.26C260.291 213.63 259.568 214 258.845 214C258.122 213.63 257.399 213.63 257.038 213.26ZM248.002 207.336V192.526H250.171V194.747C250.532 194.007 250.893 193.266 251.616 192.526C251.978 192.156 252.701 192.156 253.062 192.156C253.785 192.156 254.869 192.526 255.592 192.896L254.869 195.118C254.508 194.747 253.785 194.747 253.062 194.747C252.701 194.747 251.978 194.747 251.616 195.118C251.255 195.488 250.893 195.858 250.893 196.599C250.532 197.709 250.532 198.45 250.532 199.561V207.336H248.002ZM234.267 198.45H242.219C242.219 197.339 241.857 196.228 241.135 195.488C240.412 194.377 239.327 194.007 238.243 194.007C237.159 194.007 236.074 194.377 235.352 195.118C234.629 195.858 234.267 197.339 234.267 198.45ZM242.219 202.522L244.749 202.893C244.388 204.374 243.665 205.484 242.58 206.595C241.496 207.336 240.05 208.076 238.605 207.706C236.797 207.706 234.99 206.965 233.544 205.855C232.099 204.374 231.376 202.152 231.737 200.301C231.737 198.08 232.099 195.858 233.544 194.377C234.629 192.896 236.436 192.156 238.605 192.156C240.412 192.156 242.219 192.896 243.303 194.377C244.749 195.858 245.11 198.08 245.11 199.931V200.671H234.267C234.267 202.152 234.629 203.263 235.713 204.374C236.436 205.114 237.52 205.484 238.605 205.855C239.327 205.855 240.412 205.484 240.773 205.114C241.135 204.003 241.857 203.263 242.219 202.522ZM218.364 207.336V186.602H220.894V198.45L226.677 192.526H229.93L224.508 198.08L230.653 207.336H227.761L223.063 199.561L221.255 201.412V207.336H218.364ZM212.219 199.931C210.774 200.301 209.689 200.671 208.244 201.042C207.521 201.042 206.798 201.412 206.075 201.412C205.713 201.412 205.352 201.782 204.991 202.152C204.629 202.522 204.629 202.893 204.629 203.263C204.629 204.003 204.991 204.374 205.352 204.744C206.075 205.114 206.798 205.484 207.521 205.484C208.244 205.484 209.328 205.114 210.051 204.744C210.774 204.374 211.135 203.633 211.497 202.893C211.858 202.152 211.858 201.412 211.858 200.301L212.219 199.931ZM212.219 205.484C211.497 206.225 210.412 206.595 209.689 207.336C208.966 207.706 207.882 207.706 206.798 207.706C205.352 207.706 204.268 207.336 203.183 206.595C202.461 205.855 201.738 204.744 201.738 203.633C201.738 202.152 202.461 201.042 203.545 200.301C204.268 199.931 204.629 199.561 205.352 199.561C205.714 199.561 206.436 199.19 207.521 199.19C208.966 199.19 210.412 198.82 211.858 198.45C211.858 198.08 211.858 197.709 211.858 197.709C211.858 196.969 211.497 196.228 211.135 195.488C210.412 194.747 209.328 194.377 208.244 194.747C207.521 194.747 206.436 194.747 205.713 195.488C204.991 196.228 204.629 196.969 204.629 197.709L202.099 197.339C202.099 196.599 202.461 195.488 203.183 194.747C203.906 194.007 204.629 193.637 205.352 193.266C206.436 192.896 207.521 192.896 208.605 192.896C209.689 192.896 210.774 192.896 211.497 193.266C212.942 193.637 213.665 194.747 214.027 196.228C214.027 196.969 214.027 197.709 214.027 198.45V201.782C214.027 203.263 214.027 204.744 214.027 206.225C214.027 206.965 214.388 207.336 214.749 208.076H212.219C212.219 206.965 212.219 206.225 212.219 205.484ZM189.449 199.561C189.449 201.042 189.449 202.152 190.172 203.263C190.894 205.114 193.063 205.855 194.87 205.114C195.232 204.744 195.593 204.744 195.955 204.003C197.4 201.412 197.4 198.08 195.955 195.488C195.232 194.747 194.147 194.007 193.063 194.007C191.979 194.007 190.894 194.377 190.172 195.488C189.449 196.969 189.087 198.45 189.449 199.561ZM189.449 207.336H187.28V186.602H189.81V194.007C190.894 192.896 192.34 192.156 193.786 192.156C194.509 192.156 195.593 192.156 196.316 192.896C197.039 193.266 197.762 193.637 198.123 194.377C198.846 195.118 199.208 195.858 199.208 196.969C199.569 198.08 199.569 198.82 199.569 199.931C199.569 202.152 199.208 204.003 197.762 205.855C196.678 207.336 194.87 208.076 193.425 208.076C191.617 208.076 190.172 207.336 189.449 205.855V207.336ZM170.654 202.893L166.317 197.339C165.232 198.08 164.509 198.82 163.786 199.561C163.425 200.301 163.064 201.042 163.064 201.782C163.064 202.893 163.425 203.633 164.148 204.374C164.871 205.484 165.955 205.855 167.039 205.855C167.762 205.855 168.485 205.484 169.208 205.114C169.57 204.374 170.292 203.633 170.654 202.893ZM167.039 194.377C167.762 194.007 168.485 193.266 169.208 192.526C169.57 192.156 169.57 191.415 169.57 191.045C169.57 190.305 169.208 189.934 168.847 189.194C168.485 188.824 167.762 188.453 167.401 188.453C166.678 188.453 166.317 188.824 165.594 189.194C165.232 189.564 164.871 190.305 164.871 190.675C164.871 191.045 164.871 191.415 165.232 191.785C165.594 192.156 165.594 192.526 165.955 192.896L167.039 194.377ZM172.1 205.114C171.377 205.855 170.292 206.595 169.57 207.336C168.485 207.706 167.401 208.076 166.317 208.076C164.509 208.076 162.702 207.336 161.618 205.855C160.534 204.744 160.172 203.263 160.172 202.152C160.172 201.042 160.534 199.931 161.618 198.82C162.702 197.709 163.786 196.599 165.232 196.228C164.509 195.488 163.786 194.747 163.425 193.637C163.064 192.896 163.064 192.526 163.064 191.785C163.064 190.675 163.425 189.194 164.509 188.453C165.594 187.713 166.678 186.972 168.124 186.972C169.208 186.972 170.654 187.343 171.377 188.083C172.1 188.824 172.461 189.934 172.822 191.045C172.822 192.896 171.377 194.747 168.847 196.228L172.461 201.042C172.822 199.931 173.184 199.19 173.545 198.08L176.075 198.82C175.714 200.301 174.991 201.782 174.268 203.263C174.991 204.374 176.075 205.484 177.521 206.225L175.714 208.076C174.268 206.965 173.184 205.855 172.1 205.114ZM141.377 190.675L143.184 186.602H146.437L143.546 190.675H141.377ZM139.209 198.45H147.16C147.16 197.339 146.799 196.228 146.076 195.488C145.353 194.377 144.269 194.007 143.184 194.007C142.1 194.007 141.016 194.377 140.293 195.118C139.57 195.858 139.209 197.339 139.209 198.45ZM147.16 202.522L149.69 202.893C149.329 204.374 148.606 205.484 147.522 206.595C146.437 207.336 144.992 208.076 143.546 207.706C141.739 207.706 139.931 206.965 138.486 205.855C137.04 204.374 136.678 202.152 136.678 200.301C136.678 198.08 137.04 195.858 138.486 194.377C139.57 192.896 141.377 192.156 143.184 192.156C144.992 192.156 146.799 192.896 147.883 194.377C149.329 195.858 149.69 198.08 149.69 199.931C149.69 200.301 149.69 200.301 149.69 200.671H138.847C138.847 202.152 139.209 203.263 140.293 204.374C141.016 205.114 142.1 205.855 143.184 205.855C143.907 205.855 144.992 205.484 145.353 205.114C146.437 204.003 147.16 203.263 147.16 202.522ZM130.173 207.336V194.377H128.004V192.526H130.173V191.045C130.173 190.305 130.173 189.564 130.534 188.824C130.895 188.083 131.257 187.713 131.618 187.343C132.341 186.972 133.064 186.602 134.148 186.602C134.871 186.602 135.594 186.602 136.317 186.972L135.956 189.194C135.594 189.194 134.871 189.194 134.51 189.194C133.787 189.194 133.426 189.194 133.064 189.564C132.703 189.934 132.703 190.675 132.703 191.415V192.526H135.594V194.377H132.703V207.336H130.173ZM123.305 199.931C121.859 200.301 120.775 200.671 119.329 201.042C118.606 201.042 117.884 201.412 117.161 201.412C116.799 201.412 116.438 201.782 116.076 202.152C115.354 203.263 115.715 204.374 116.438 205.114C117.161 205.484 117.884 205.855 118.606 205.855C119.329 205.855 120.414 205.484 121.137 205.114C121.859 204.744 122.582 204.003 122.582 203.263C122.944 202.522 122.944 201.782 122.944 200.671L123.305 199.931ZM123.667 205.484C122.944 206.225 122.221 206.965 121.137 207.336C120.414 207.706 119.329 207.706 118.245 207.706C116.799 207.706 115.715 207.336 114.631 206.595C113.908 205.855 113.185 204.744 113.185 203.633C113.185 202.893 113.185 202.152 113.546 201.782C113.908 201.042 114.269 200.671 114.992 200.301C115.715 199.931 116.076 199.561 116.799 199.561C117.161 199.561 117.884 199.19 118.968 199.19C120.414 199.19 121.859 198.82 123.305 198.45C123.305 198.08 123.305 197.709 123.305 197.709C123.305 196.969 123.305 196.228 122.582 195.488C121.859 194.747 120.775 194.377 119.691 194.747C118.968 194.747 117.884 194.747 117.161 195.488C116.438 196.228 116.076 196.969 116.076 197.709L113.546 197.339C113.546 196.599 113.908 195.488 114.631 194.747C115.354 194.007 116.076 193.637 116.799 193.266C117.884 192.896 118.968 192.896 120.052 192.896C121.137 192.896 121.859 192.896 122.944 193.266C124.39 193.637 125.112 194.747 125.474 196.228C125.474 196.969 125.474 197.709 125.474 198.45V201.782C125.474 203.263 125.474 204.744 125.474 206.225C125.474 206.965 125.835 207.336 126.197 208.076H124.028C123.667 206.965 123.667 206.225 123.667 205.484ZM109.57 201.782L112.101 202.152C111.739 203.633 111.378 205.114 109.932 206.225C108.848 207.336 107.402 207.706 105.956 207.706C104.149 207.706 102.342 206.965 101.257 205.855C99.8116 204.374 99.4502 202.152 99.4502 200.301C99.4502 198.82 99.8116 197.339 100.173 196.228C100.535 195.118 101.619 194.007 102.703 193.637C103.787 192.896 104.872 192.526 106.318 192.896C107.763 192.896 109.209 193.266 110.293 194.007C111.378 194.747 112.101 196.228 112.101 197.339L109.57 197.709C109.57 196.969 108.848 195.858 108.486 195.488C107.763 195.118 107.04 194.747 106.318 194.747C105.233 194.747 104.149 195.118 103.426 196.228C102.703 197.339 101.98 199.19 102.342 200.671C102.342 202.152 102.703 203.633 103.426 205.114C104.149 205.855 105.233 206.595 106.318 206.595C107.04 206.595 108.125 206.225 108.848 205.855C109.209 204.003 109.57 202.893 109.57 201.782Z" fill="white"/>
</svg>
