<?xml version="1.0" encoding="UTF-8"?>
<!DOCTYPE svg PUBLIC "-//W3C//DTD SVG 1.1//EN" "http://www.w3.org/Graphics/SVG/1.1/DTD/svg11.dtd">
<svg xmlns="http://www.w3.org/2000/svg" version="1.1" width="24px" height="24px" style="shape-rendering:geometricPrecision; text-rendering:geometricPrecision; image-rendering:optimizeQuality; fill-rule:evenodd; clip-rule:evenodd" xmlns:xlink="http://www.w3.org/1999/xlink">
<g><path style="opacity:0.69" fill="#fefffe" d="M 1.5,-0.5 C 6.16667,-0.5 10.8333,-0.5 15.5,-0.5C 17.1271,1.62976 18.9604,3.62976 21,5.5C 21.4995,11.4908 21.6662,17.4908 21.5,23.5C 14.8333,23.5 8.16667,23.5 1.5,23.5C 1.5,15.5 1.5,7.5 1.5,-0.5 Z M 3.5,1.5 C 6.5,1.5 9.5,1.5 12.5,1.5C 11.1667,7.5 13.5,9.83333 19.5,8.5C 19.5,12.8333 19.5,17.1667 19.5,21.5C 14.1667,21.5 8.83333,21.5 3.5,21.5C 3.5,14.8333 3.5,8.16667 3.5,1.5 Z"/></g>
<g><path style="opacity:0.431" fill="#fefffe" d="M 5.5,10.5 C 9.5,10.5 13.5,10.5 17.5,10.5C 17.5,11.5 17.5,12.5 17.5,13.5C 13.5,13.5 9.5,13.5 5.5,13.5C 5.5,12.5 5.5,11.5 5.5,10.5 Z"/></g>
<g><path style="opacity:0.432" fill="#fefffe" d="M 5.5,15.5 C 9.5,15.5 13.5,15.5 17.5,15.5C 17.5,16.5 17.5,17.5 17.5,18.5C 13.5,18.5 9.5,18.5 5.5,18.5C 5.5,17.5 5.5,16.5 5.5,15.5 Z"/></g>
</svg>
