<svg width="22" height="14" viewBox="0 0 22 14" fill="none" xmlns="http://www.w3.org/2000/svg">
<path fill-rule="evenodd" clip-rule="evenodd" d="M10.9999 12C13.7613 12 15.9999 9.76142 15.9999 7C15.9999 4.23858 13.7613 2 10.9999 2C8.23846 2 5.99989 4.23858 5.99989 7C5.99989 9.76142 8.23846 12 10.9999 12ZM10.9999 11C13.209 11 14.9999 9.20914 14.9999 7C14.9999 4.79086 13.209 3 10.9999 3C8.79075 3 6.99989 4.79086 6.99989 7C6.99989 9.20914 8.79075 11 10.9999 11Z" fill="#0D0D0D"/>
<path fill-rule="evenodd" clip-rule="evenodd" d="M21.4381 6.37233C19.8462 4.65393 16.9999 0 10.9999 0C4.99989 0 2.15357 4.65394 0.561691 6.37234C0.230412 6.72994 0.230413 7.27006 0.561692 7.62767C2.15358 9.34607 4.99989 14 10.9999 14C16.9999 14 19.8462 9.34606 21.4381 7.62766C21.7694 7.27006 21.7694 6.72994 21.4381 6.37233ZM10.9999 1C16.2684 1 19.6094 5.62629 20.3457 6.75424C20.4442 6.90516 20.4442 7.09484 20.3457 7.24576C19.6094 8.37371 16.2684 13 10.9999 13C5.73133 13 2.39039 8.37371 1.65412 7.24576C1.5556 7.09484 1.5556 6.90516 1.65412 6.75424C2.39039 5.62629 5.73133 1 10.9999 1Z" fill="#0D0D0D"/>
</svg>
