<svg width="24" height="24" viewBox="0 0 24 24" fill="none" xmlns="http://www.w3.org/2000/svg">
<path fill-rule="evenodd" clip-rule="evenodd" d="M12 12C14.4853 12 16.5 9.98528 16.5 7.5C16.5 5.01472 14.4853 3 12 3C9.51472 3 7.5 5.01472 7.5 7.5C7.5 9.98528 9.51472 12 12 12ZM12 11C13.933 11 15.5 9.433 15.5 7.5C15.5 5.567 13.933 4 12 4C10.067 4 8.5 5.567 8.5 7.5C8.5 9.433 10.067 11 12 11Z" fill="#fff"/>
<path fill-rule="evenodd" clip-rule="evenodd" d="M3.06031 19.2327C2.76842 20.1854 3.57722 21 4.59908 21H19.4009C20.4228 21 21.2316 20.1854 20.9397 19.2327C20.2866 17.1009 18.2639 13.8 12 13.8C5.73607 13.8 3.71343 17.1009 3.06031 19.2327ZM19 20H4.99997C4.09165 20 4.14063 19.4343 4.40008 18.7727C4.98064 17.2923 7.00003 14.7999 12 14.7999C17 14.7999 18.9695 17.2923 19.5501 18.7727C19.8095 19.4343 19.9083 20 19 20Z" fill="#fff"/>
</svg>
